<!-- High Quality Placeholder for Project 4 - Modern Interior -->
<svg xmlns="http://www.w3.org/2000/svg" viewBox="0 0 1200 800">
  <defs>
    <linearGradient id="wallGrad" x1="0%" y1="0%" x2="100%" y2="0%">
      <stop offset="0%" style="stop-color:#F8F8F8;stop-opacity:1" />
      <stop offset="100%" style="stop-color:#E8E8E8;stop-opacity:1" />
    </linearGradient>
    <linearGradient id="floorGrad" x1="0%" y1="0%" x2="0%" y2="100%">
      <stop offset="0%" style="stop-color:#DEB887;stop-opacity:1" />
      <stop offset="100%" style="stop-color:#D2B48C;stop-opacity:1" />
    </linearGradient>
    <linearGradient id="ceilingGrad" x1="0%" y1="0%" x2="0%" y2="100%">
      <stop offset="0%" style="stop-color:#FFFFFF;stop-opacity:1" />
      <stop offset="100%" style="stop-color:#F5F5F5;stop-opacity:1" />
    </linearGradient>
    <linearGradient id="sofaGrad" x1="0%" y1="0%" x2="0%" y2="100%">
      <stop offset="0%" style="stop-color:#2C3E50;stop-opacity:1" />
      <stop offset="100%" style="stop-color:#34495E;stop-opacity:1" />
    </linearGradient>
  </defs>
  
  <!-- Room Base -->
  <!-- Floor -->
  <polygon points="0,400 1200,400 1000,800 200,800" fill="url(#floorGrad)"/>
  
  <!-- Back Wall -->
  <rect x="0" y="0" width="1200" height="400" fill="url(#wallGrad)"/>
  
  <!-- Left Wall -->
  <polygon points="0,0 0,400 200,800 200,200" fill="#E0E0E0"/>
  
  <!-- Right Wall -->
  <polygon points="1200,0 1200,400 1000,800 1000,200" fill="#D8D8D8"/>
  
  <!-- Ceiling -->
  <polygon points="0,0 1200,0 1000,200 200,200" fill="url(#ceilingGrad)"/>
  
  <!-- Floor Pattern -->
  <g stroke="#C8B99C" stroke-width="2" fill="none" opacity="0.5">
    <line x1="250" y1="400" x2="210" y2="800"/>
    <line x1="350" y1="400" x2="310" y2="800"/>
    <line x1="450" y1="400" x2="410" y2="800"/>
    <line x1="550" y1="400" x2="510" y2="800"/>
    <line x1="650" y1="400" x2="610" y2="800"/>
    <line x1="750" y1="400" x2="710" y2="800"/>
    <line x1="850" y1="400" x2="810" y2="800"/>
    <line x1="950" y1="400" x2="910" y2="800"/>
  </g>
  
  <!-- Modern Sofa -->
  <path d="M 300 580 Q 280 570 280 550 L 280 520 Q 280 500 300 500 L 700 500 Q 720 500 720 520 L 720 550 Q 720 570 700 580 Z" fill="url(#sofaGrad)"/>
  <rect x="290" y="580" width="430" height="80" fill="url(#sofaGrad)" rx="10"/>
  <rect x="250" y="570" width="80" height="90" fill="url(#sofaGrad)" rx="10"/>
  <rect x="670" y="570" width="80" height="90" fill="url(#sofaGrad)" rx="10"/>
  
  <!-- Coffee Table -->
  <ellipse cx="500" cy="650" rx="120" ry="60" fill="#8B4513"/>
  <rect x="380" y="645" width="240" height="10" fill="#A0522D"/>
  <rect x="470" y="660" width="15" height="40" fill="#654321"/>
  <rect x="515" y="660" width="15" height="40" fill="#654321"/>
  
  <!-- TV Unit -->
  <rect x="50" y="250" width="300" height="120" fill="#2C3E50"/>
  <rect x="70" y="270" width="260" height="80" fill="#000000"/>
  <rect x="60" y="370" width="280" height="20" fill="#34495E"/>
  <circle cx="320" cy="380" r="3" fill="#E74C3C"/>
  
  <!-- Wall Art -->
  <rect x="450" y="150" width="200" height="120" fill="#3498DB" stroke="#2980B9" stroke-width="3"/>
  <rect x="470" y="170" width="160" height="80" fill="#85C1E9"/>
  <circle cx="550" cy="210" r="25" fill="#2980B9"/>
  
  <rect x="750" y="120" width="150" height="100" fill="#E67E22" stroke="#D35400" stroke-width="2"/>
  <polygon points="825,140 800,180 850,180" fill="#F39C12"/>
  
  <!-- Modern Lighting -->
  <rect x="400" y="200" width="8" height="150" fill="#BDC3C7"/>
  <ellipse cx="404" cy="200" rx="25" ry="8" fill="#ECF0F1"/>
  <circle cx="404" cy="200" r="15" fill="#F1C40F" opacity="0.8"/>
  
  <rect x="650" y="200" width="6" height="120" fill="#BDC3C7"/>
  <ellipse cx="653" cy="200" rx="20" ry="6" fill="#ECF0F1"/>
  <circle cx="653" cy="200" r="12" fill="#F39C12" opacity="0.8"/>
  
  <!-- Plants -->
  <rect x="150" y="500" width="20" height="100" fill="#8B4513"/>
  <ellipse cx="160" cy="500" rx="30" ry="20" fill="#27AE60"/>
  <ellipse cx="160" cy="490" rx="25" ry="15" fill="#2ECC71"/>
  
  <rect x="850" y="520" width="15" height="80" fill="#8B4513"/>
  <ellipse cx="857" cy="520" rx="25" ry="18" fill="#27AE60"/>
  
  <!-- Bookshelf -->
  <rect x="950" y="200" width="200" height="180" fill="#8B4513"/>
  <rect x="960" y="210" width="180" height="30" fill="#A0522D"/>
  <rect x="960" y="250" width="180" height="30" fill="#A0522D"/>
  <rect x="960" y="290" width="180" height="30" fill="#A0522D"/>
  <rect x="960" y="330" width="180" height="30" fill="#A0522D"/>
  
  <!-- Books -->
  <rect x="970" y="215" width="15" height="20" fill="#E74C3C"/>
  <rect x="990" y="215" width="12" height="20" fill="#3498DB"/>
  <rect x="1005" y="215" width="18" height="20" fill="#2ECC71"/>
  <rect x="1025" y="215" width="14" height="20" fill="#F39C12"/>
  
  <!-- Window -->
  <rect x="700" y="50" width="180" height="120" fill="#87CEEB" stroke="#4682B4" stroke-width="3"/>
  <line x1="790" y1="50" x2="790" y2="170" stroke="#4682B4" stroke-width="2"/>
  <line x1="700" y1="110" x2="880" y2="110" stroke="#4682B4" stroke-width="2"/>
  
  <!-- Window View -->
  <rect x="705" y="55" width="80" height="50" fill="#90EE90" opacity="0.7"/>
  <rect x="795" y="55" width="80" height="50" fill="#87CEEB" opacity="0.7"/>
  <rect x="705" y="115" width="80" height="50" fill="#F0E68C" opacity="0.7"/>
  <rect x="795" y="115" width="80" height="50" fill="#DDA0DD" opacity="0.7"/>
  
  <!-- Decorative Elements -->
  <circle cx="600" cy="450" r="20" fill="#E67E22"/>
  <rect x="520" y="630" width="40" height="15" fill="#34495E"/>
  <ellipse cx="540" cy="637" rx="15" ry="5" fill="#E74C3C"/>
  
  <!-- Text Overlay -->
  <rect x="0" y="720" width="1200" height="80" fill="black" opacity="0.8"/>
  <text x="600" y="750" text-anchor="middle" font-family="Arial, sans-serif" font-size="40" fill="white" font-weight="bold">Modern Interior Design</text>
  <text x="600" y="775" text-anchor="middle" font-family="Arial, sans-serif" font-size="20" fill="#E0E0E0">Contemporary Living Spaces</text>
</svg>
