<!-- High Quality Placeholder for Project 1 - Modern Residential -->
<svg xmlns="http://www.w3.org/2000/svg" viewBox="0 0 1200 800">
  <defs>
    <linearGradient id="skyGrad" x1="0%" y1="0%" x2="0%" y2="100%">
      <stop offset="0%" style="stop-color:#87CEEB;stop-opacity:1" />
      <stop offset="100%" style="stop-color:#E0F6FF;stop-opacity:1" />
    </linearGradient>
    <linearGradient id="buildingGrad" x1="0%" y1="0%" x2="0%" y2="100%">
      <stop offset="0%" style="stop-color:#F5F5F5;stop-opacity:1" />
      <stop offset="100%" style="stop-color:#E8E8E8;stop-opacity:1" />
    </linearGradient>
    <linearGradient id="glassGrad" x1="0%" y1="0%" x2="0%" y2="100%">
      <stop offset="0%" style="stop-color:#B0E0E6;stop-opacity:0.8" />
      <stop offset="100%" style="stop-color:#4682B4;stop-opacity:0.3" />
    </linearGradient>
  </defs>
  
  <!-- Sky Background -->
  <rect width="1200" height="400" fill="url(#skyGrad)"/>
  
  <!-- Ground -->
  <rect y="400" width="1200" height="400" fill="#2F4F2F"/>
  
  <!-- Main Building Structure -->
  <rect x="200" y="150" width="800" height="450" fill="url(#buildingGrad)" stroke="#D3D3D3" stroke-width="2"/>
  
  <!-- Building Floors -->
  <rect x="220" y="170" width="760" height="100" fill="url(#glassGrad)" stroke="#B0C4DE" stroke-width="1"/>
  <rect x="220" y="290" width="760" height="100" fill="url(#glassGrad)" stroke="#B0C4DE" stroke-width="1"/>
  <rect x="220" y="410" width="760" height="100" fill="url(#glassGrad)" stroke="#B0C4DE" stroke-width="1"/>
  <rect x="220" y="530" width="760" height="50" fill="url(#glassGrad)" stroke="#B0C4DE" stroke-width="1"/>
  
  <!-- Window Grid -->
  <g stroke="#87CEEB" stroke-width="1" fill="none">
    <!-- Floor 1 Windows -->
    <line x1="320" y1="170" x2="320" y2="270"/>
    <line x1="420" y1="170" x2="420" y2="270"/>
    <line x1="520" y1="170" x2="520" y2="270"/>
    <line x1="620" y1="170" x2="620" y2="270"/>
    <line x1="720" y1="170" x2="720" y2="270"/>
    <line x1="820" y1="170" x2="820" y2="270"/>
    <line x1="220" y1="220" x2="980" y2="220"/>
    
    <!-- Floor 2 Windows -->
    <line x1="320" y1="290" x2="320" y2="390"/>
    <line x1="420" y1="290" x2="420" y2="390"/>
    <line x1="520" y1="290" x2="520" y2="390"/>
    <line x1="620" y1="290" x2="620" y2="390"/>
    <line x1="720" y1="290" x2="720" y2="390"/>
    <line x1="820" y1="290" x2="820" y2="390"/>
    <line x1="220" y1="340" x2="980" y2="340"/>
    
    <!-- Floor 3 Windows -->
    <line x1="320" y1="410" x2="320" y2="510"/>
    <line x1="420" y1="410" x2="420" y2="510"/>
    <line x1="520" y1="410" x2="520" y2="510"/>
    <line x1="620" y1="410" x2="620" y2="510"/>
    <line x1="720" y1="410" x2="720" y2="510"/>
    <line x1="820" y1="410" x2="820" y2="510"/>
    <line x1="220" y1="460" x2="980" y2="460"/>
  </g>
  
  <!-- Entrance -->
  <rect x="550" y="520" width="100" height="80" fill="#8B4513" stroke="#654321" stroke-width="2"/>
  <rect x="570" y="540" width="60" height="60" fill="#D2691E"/>
  
  <!-- Landscaping -->
  <ellipse cx="150" cy="550" rx="60" ry="30" fill="#228B22"/>
  <ellipse cx="1050" cy="520" rx="80" ry="40" fill="#32CD32"/>
  <ellipse cx="100" cy="650" rx="40" ry="20" fill="#90EE90"/>
  <ellipse cx="1100" cy="680" rx="50" ry="25" fill="#98FB98"/>
  
  <!-- Trees -->
  <rect x="80" y="480" width="10" height="80" fill="#8B4513"/>
  <circle cx="85" cy="480" r="25" fill="#228B22"/>
  
  <rect x="1080" y="460" width="12" height="90" fill="#8B4513"/>
  <circle cx="1086" cy="460" r="30" fill="#32CD32"/>
  
  <!-- Clouds -->
  <ellipse cx="300" cy="100" rx="40" ry="20" fill="white" opacity="0.8"/>
  <ellipse cx="320" cy="90" rx="30" ry="15" fill="white" opacity="0.8"/>
  <ellipse cx="340" cy="100" rx="35" ry="18" fill="white" opacity="0.8"/>
  
  <ellipse cx="800" cy="80" rx="45" ry="22" fill="white" opacity="0.8"/>
  <ellipse cx="825" cy="70" rx="35" ry="18" fill="white" opacity="0.8"/>
  <ellipse cx="850" cy="80" rx="40" ry="20" fill="white" opacity="0.8"/>
  
  <!-- Text Overlay -->
  <rect x="0" y="650" width="1200" height="150" fill="black" opacity="0.7"/>
  <text x="600" y="720" text-anchor="middle" font-family="Arial, sans-serif" font-size="48" fill="white" font-weight="bold">Modern Residential Complex</text>
  <text x="600" y="760" text-anchor="middle" font-family="Arial, sans-serif" font-size="24" fill="#E0E0E0">Contemporary Living with Sustainable Design</text>
</svg>
