<!-- High Quality Placeholder for Project 5 - Hospitality Design -->
<svg xmlns="http://www.w3.org/2000/svg" viewBox="0 0 1200 800">
  <defs>
    <linearGradient id="skyGrad5" x1="0%" y1="0%" x2="0%" y2="100%">
      <stop offset="0%" style="stop-color:#FF6B6B;stop-opacity:1" />
      <stop offset="100%" style="stop-color:#FFE66D;stop-opacity:1" />
    </linearGradient>
    <linearGradient id="hotelGrad" x1="0%" y1="0%" x2="0%" y2="100%">
      <stop offset="0%" style="stop-color:#F8F3E3;stop-opacity:1" />
      <stop offset="100%" style="stop-color:#E8DCC0;stop-opacity:1" />
    </linearGradient>
    <linearGradient id="poolGrad5" x1="0%" y1="0%" x2="0%" y2="100%">
      <stop offset="0%" style="stop-color:#4ECDC4;stop-opacity:0.9" />
      <stop offset="100%" style="stop-color:#44A08D;stop-opacity:1" />
    </linearGradient>
  </defs>
  
  <!-- Tropical Sky -->
  <rect width="1200" height="300" fill="url(#skyGrad5)"/>
  
  <!-- Beach/Ground -->
  <rect y="300" width="1200" height="500" fill="#F4A460"/>
  
  <!-- Main Hotel Building -->
  <rect x="150" y="150" width="900" height="350" fill="url(#hotelGrad)" stroke="#D2B48C" stroke-width="2"/>
  
  <!-- Hotel Wings -->
  <rect x="100" y="200" width="100" height="300" fill="url(#hotelGrad)" stroke="#D2B48C" stroke-width="2"/>
  <rect x="1000" y="200" width="100" height="300" fill="url(#hotelGrad)" stroke="#D2B48C" stroke-width="2"/>
  
  <!-- Roof -->
  <polygon points="80,200 120,150 220,150 250,200" fill="#8B4513"/>
  <polygon points="130,150 970,150 1070,200 150,200" fill="#8B4513"/>
  <polygon points="980,150 1020,150 1120,200 1000,200" fill="#8B4513"/>
  
  <!-- Hotel Balconies -->
  <g fill="#E8DCC0" stroke="#D2B48C" stroke-width="1">
    <rect x="200" y="200" width="80" height="80"/>
    <rect x="320" y="200" width="80" height="80"/>
    <rect x="440" y="200" width="80" height="80"/>
    <rect x="560" y="200" width="80" height="80"/>
    <rect x="680" y="200" width="80" height="80"/>
    <rect x="800" y="200" width="80" height="80"/>
    <rect x="920" y="200" width="80" height="80"/>
    
    <rect x="200" y="320" width="80" height="80"/>
    <rect x="320" y="320" width="80" height="80"/>
    <rect x="440" y="320" width="80" height="80"/>
    <rect x="560" y="320" width="80" height="80"/>
    <rect x="680" y="320" width="80" height="80"/>
    <rect x="800" y="320" width="80" height="80"/>
    <rect x="920" y="320" width="80" height="80"/>
  </g>
  
  <!-- Balcony Railings -->
  <g stroke="#CD853F" stroke-width="2" fill="none">
    <line x1="200" y1="280" x2="280" y2="280"/>
    <line x1="320" y1="280" x2="400" y2="280"/>
    <line x1="440" y1="280" x2="520" y2="280"/>
    <line x1="560" y1="280" x2="640" y2="280"/>
    <line x1="680" y1="280" x2="760" y2="280"/>
    <line x1="800" y1="280" x2="880" y2="280"/>
    <line x1="920" y1="280" x2="1000" y2="280"/>
    
    <line x1="200" y1="400" x2="280" y2="400"/>
    <line x1="320" y1="400" x2="400" y2="400"/>
    <line x1="440" y1="400" x2="520" y2="400"/>
    <line x1="560" y1="400" x2="640" y2="400"/>
    <line x1="680" y1="400" x2="760" y2="400"/>
    <line x1="800" y1="400" x2="880" y2="400"/>
    <line x1="920" y1="400" x2="1000" y2="400"/>
  </g>
  
  <!-- Main Entrance -->
  <rect x="550" y="450" width="100" height="50" fill="#8B4513"/>
  <polygon points="530,450 620,400 670,450" fill="#A0522D"/>
  <rect x="570" y="460" width="60" height="40" fill="#654321"/>
  
  <!-- Hotel Pool -->
  <ellipse cx="600" cy="600" rx="200" ry="100" fill="url(#poolGrad5)" stroke="#20B2AA" stroke-width="3"/>
  <ellipse cx="600" cy="590" rx="180" ry="80" fill="#40E0D0" opacity="0.7"/>
  
  <!-- Pool Deck -->
  <rect x="350" y="550" width="500" height="30" fill="#D2B48C"/>
  <rect x="350" y="680" width="500" height="30" fill="#D2B48C"/>
  
  <!-- Pool Loungers -->
  <rect x="300" y="620" width="60" height="20" fill="#8B4513"/>
  <rect x="280" y="615" width="20" height="30" fill="#A0522D"/>
  
  <rect x="840" y="620" width="60" height="20" fill="#8B4513"/>
  <rect x="900" y="615" width="20" height="30" fill="#A0522D"/>
  
  <!-- Umbrellas -->
  <rect x="320" y="580" width="5" height="40" fill="#8B4513"/>
  <circle cx="322" cy="580" r="25" fill="#FF6B6B"/>
  
  <rect x="875" y="580" width="5" height="40" fill="#8B4513"/>
  <circle cx="877" cy="580" r="25" fill="#4ECDC4"/>
  
  <!-- Palm Trees -->
  <rect x="80" y="420" width="15" height="100" fill="#8B4513"/>
  <ellipse cx="87" cy="410" rx="20" ry="30" fill="#228B22"/>
  <ellipse cx="87" cy="400" rx="25" ry="35" fill="#32CD32"/>
  <ellipse cx="87" cy="390" rx="20" ry="30" fill="#228B22"/>
  
  <rect x="1150" y="400" width="18" height="120" fill="#8B4513"/>
  <ellipse cx="1159" cy="390" rx="25" ry="35" fill="#228B22"/>
  <ellipse cx="1159" cy="380" rx="30" ry="40" fill="#32CD32"/>
  <ellipse cx="1159" cy="370" rx="25" ry="35" fill="#228B22"/>
  
  <rect x="50" y="450" width="12" height="80" fill="#8B4513"/>
  <ellipse cx="56" cy="440" rx="18" ry="25" fill="#228B22"/>
  <ellipse cx="56" cy="430" rx="22" ry="30" fill="#32CD32"/>
  
  <!-- Beach Elements -->
  <ellipse cx="200" cy="700" rx="60" ry="20" fill="#F4A460"/>
  <ellipse cx="1000" cy="720" rx="80" ry="25" fill="#F4A460"/>
  
  <!-- Resort Decorations -->
  <polygon points="450,550 470,530 490,550" fill="#FF6B6B"/>
  <polygon points="710,550 730,530 750,550" fill="#4ECDC4"/>
  
  <!-- Sun -->
  <circle cx="1000" cy="100" r="45" fill="#FFD700" opacity="0.9"/>
  
  <!-- Tropical Clouds -->
  <ellipse cx="300" cy="80" rx="60" ry="30" fill="white" opacity="0.8"/>
  <ellipse cx="330" cy="70" rx="40" ry="20" fill="white" opacity="0.8"/>
  <ellipse cx="800" cy="60" rx="50" ry="25" fill="white" opacity="0.8"/>
  
  <!-- Text Overlay -->
  <rect x="0" y="720" width="1200" height="80" fill="black" opacity="0.7"/>
  <text x="600" y="750" text-anchor="middle" font-family="Arial, sans-serif" font-size="40" fill="white" font-weight="bold">Luxury Resort & Spa</text>
  <text x="600" y="775" text-anchor="middle" font-family="Arial, sans-serif" font-size="20" fill="#E0E0E0">Tropical Hospitality Design</text>
</svg>
