<svg viewBox="0 0 800 600" xmlns="http://www.w3.org/2000/svg">
  <defs>
    <linearGradient id="luxuryHomeGradient" x1="0%" y1="0%" x2="100%" y2="100%">
      <stop offset="0%" style="stop-color:#FFF8DC"/>
      <stop offset="50%" style="stop-color:#F5F5DC"/>
      <stop offset="100%" style="stop-color:#DDD8C0"/>
    </linearGradient>
    <linearGradient id="stoneGradient" x1="0%" y1="0%" x2="100%" y2="100%">
      <stop offset="0%" style="stop-color:#D2B48C"/>
      <stop offset="50%" style="stop-color:#BC9A6A"/>
      <stop offset="100%" style="stop-color:#A0826D"/>
    </linearGradient>
    <linearGradient id="skyGradient3" x1="0%" y1="0%" x2="0%" y2="100%">
      <stop offset="0%" style="stop-color:#FFE4B5"/>
      <stop offset="100%" style="stop-color:#FDF5E6"/>
    </linearGradient>
    <linearGradient id="gardenGradient" x1="0%" y1="0%" x2="0%" y2="100%">
      <stop offset="0%" style="stop-color:#9ACD32"/>
      <stop offset="100%" style="stop-color:#556B2F"/>
    </linearGradient>
    <radialGradient id="fountainGradient" cx="50%" cy="30%" r="70%">
      <stop offset="0%" style="stop-color:#E0F6FF"/>
      <stop offset="100%" style="stop-color:#B0E0E6"/>
    </radialGradient>
  </defs>
  
  <!-- Golden hour sky -->
  <rect width="800" height="400" fill="url(#skyGradient3)"/>
  
  <!-- Distant hills -->
  <polygon points="0,350 200,250 400,280 600,220 800,260 800,400 0,400" fill="#D2B48C" opacity="0.4"/>
  
  <!-- Manicured lawn -->
  <rect y="400" width="800" height="200" fill="url(#gardenGradient)"/>
  
  <!-- Circular driveway -->
  <ellipse cx="400" cy="520" rx="180" ry="60" fill="#708090"/>
  <ellipse cx="400" cy="515" rx="160" ry="50" fill="#778899"/>
  <ellipse cx="400" cy="515" rx="40" ry="15" fill="url(#gardenGradient)"/>
  
  <!-- Main luxury house -->
  <rect x="250" y="180" width="300" height="220" fill="url(#luxuryHomeGradient)" stroke="#D2B48C" stroke-width="2"/>
  
  <!-- Stone foundation -->
  <rect x="240" y="350" width="320" height="50" fill="url(#stoneGradient)"/>
  
  <!-- Grand entrance with columns -->
  <rect x="350" y="200" width="100" height="200" fill="url(#luxuryHomeGradient)"/>
  <rect x="360" y="180" width="15" height="220" fill="url(#stoneGradient)"/>
  <rect x="385" y="180" width="15" height="220" fill="url(#stoneGradient)"/>
  <rect x="410" y="180" width="15" height="220" fill="url(#stoneGradient)"/>
  <rect x="435" y="180" width="15" height="220" fill="url(#stoneGradient)"/>
  
  <!-- Column capitals -->
  <rect x="358" y="175" width="19" height="10" fill="#F5DEB3"/>
  <rect x="383" y="175" width="19" height="10" fill="#F5DEB3"/>
  <rect x="408" y="175" width="19" height="10" fill="#F5DEB3"/>
  <rect x="433" y="175" width="19" height="10" fill="#F5DEB3"/>
  
  <!-- Grand entrance roof -->
  <polygon points="340,170 460,170 420,140 380,140" fill="#8B4513"/>
  
  <!-- Main roof -->
  <polygon points="240,160 560,160 520,120 280,120" fill="#8B4513"/>
  <polygon points="240,160 280,120 285,125 245,165" fill="#A0522D"/>
  
  <!-- Elegant windows -->
  <rect x="270" y="200" width="40" height="60" fill="#4682B4" opacity="0.7" stroke="#8B4513" stroke-width="3"/>
  <rect x="285" y="205" width="2" height="50" fill="#8B4513"/>
  <rect x="289" y="225" width="16" height="2" fill="#8B4513"/>
  
  <rect x="270" y="280" width="40" height="60" fill="#4682B4" opacity="0.7" stroke="#8B4513" stroke-width="3"/>
  <rect x="285" y="285" width="2" height="50" fill="#8B4513"/>
  <rect x="289" y="305" width="16" height="2" fill="#8B4513"/>
  
  <rect x="490" y="200" width="40" height="60" fill="#4682B4" opacity="0.7" stroke="#8B4513" stroke-width="3"/>
  <rect x="505" y="205" width="2" height="50" fill="#8B4513"/>
  <rect x="509" y="225" width="16" height="2" fill="#8B4513"/>
  
  <rect x="490" y="280" width="40" height="60" fill="#4682B4" opacity="0.7" stroke="#8B4513" stroke-width="3"/>
  <rect x="505" y="285" width="2" height="50" fill="#8B4513"/>
  <rect x="509" y="305" width="16" height="2" fill="#8B4513"/>
  
  <!-- French doors -->
  <rect x="375" y="280" width="50" height="120" fill="#8B4513" stroke="#654321" stroke-width="2"/>
  <rect x="380" y="290" width="18" height="100" fill="#4682B4" opacity="0.7"/>
  <rect x="402" y="290" width="18" height="100" fill="#4682B4" opacity="0.7"/>
  <circle cx="418" cy="340" r="3" fill="#FFD700"/>
  
  <!-- Side wings -->
  <rect x="150" y="220" width="100" height="180" fill="url(#luxuryHomeGradient)" stroke="#D2B48C" stroke-width="2"/>
  <polygon points="140,200 260,200 220,170 180,170" fill="#8B4513"/>
  
  <rect x="550" y="220" width="100" height="180" fill="url(#luxuryHomeGradient)" stroke="#D2B48C" stroke-width="2"/>
  <polygon points="540,200 660,200 620,170 580,170" fill="#8B4513"/>
  
  <!-- Side wing windows -->
  <rect x="170" y="250" width="25" height="40" fill="#4682B4" opacity="0.7" stroke="#8B4513" stroke-width="2"/>
  <rect x="205" y="250" width="25" height="40" fill="#4682B4" opacity="0.7" stroke="#8B4513" stroke-width="2"/>
  <rect x="170" y="320" width="25" height="40" fill="#4682B4" opacity="0.7" stroke="#8B4513" stroke-width="2"/>
  <rect x="205" y="320" width="25" height="40" fill="#4682B4" opacity="0.7" stroke="#8B4513" stroke-width="2"/>
  
  <rect x="570" y="250" width="25" height="40" fill="#4682B4" opacity="0.7" stroke="#8B4513" stroke-width="2"/>
  <rect x="605" y="250" width="25" height="40" fill="#4682B4" opacity="0.7" stroke="#8B4513" stroke-width="2"/>
  <rect x="570" y="320" width="25" height="40" fill="#4682B4" opacity="0.7" stroke="#8B4513" stroke-width="2"/>
  <rect x="605" y="320" width="25" height="40" fill="#4682B4" opacity="0.7" stroke="#8B4513" stroke-width="2"/>
  
  <!-- Ornate fountain -->
  <circle cx="400" cy="515" r="35" fill="url(#fountainGradient)" stroke="#B0C4DE" stroke-width="2"/>
  <circle cx="400" cy="510" r="25" fill="#E0F6FF"/>
  <circle cx="400" cy="505" r="8" fill="#4682B4"/>
  <rect x="398" y="490" width="4" height="25" fill="#708090"/>
  
  <!-- Water fountains -->
  <circle cx="400" cy="505" r="2" fill="white" opacity="0.8"/>
  <circle cx="395" cy="508" r="1" fill="white" opacity="0.6"/>
  <circle cx="405" cy="508" r="1" fill="white" opacity="0.6"/>
  
  <!-- Landscaped gardens -->
  <circle cx="100" cy="480" r="50" fill="#228B22"/>
  <circle cx="80" cy="460" r="30" fill="#32CD32"/>
  <circle cx="120" cy="465" r="25" fill="#9ACD32"/>
  
  <circle cx="700" cy="470" r="45" fill="#228B22"/>
  <circle cx="720" cy="450" r="28" fill="#32CD32"/>
  <circle cx="680" cy="455" r="22" fill="#9ACD32"/>
  
  <!-- Ornamental trees -->
  <rect x="95" y="430" width="10" height="60" fill="#8B4513"/>
  <circle cx="100" cy="420" r="25" fill="#228B22"/>
  <circle cx="90" cy="415" r="15" fill="#32CD32"/>
  <circle cx="110" cy="410" r="18" fill="#9ACD32"/>
  
  <rect x="695" y="420" width="10" height="60" fill="#8B4513"/>
  <circle cx="700" cy="410" r="25" fill="#228B22"/>
  <circle cx="690" cy="405" r="15" fill="#32CD32"/>
  <circle cx="710" cy="400" r="18" fill="#9ACD32"/>
  
  <!-- Decorative lamp posts -->
  <rect x="320" y="450" width="6" height="40" fill="#2F4F4F"/>
  <rect x="315" y="445" width="16" height="10" fill="#FFD700"/>
  <circle cx="323" cy="440" r="8" fill="#FFD700" opacity="0.7"/>
  
  <rect x="474" y="450" width="6" height="40" fill="#2F4F4F"/>
  <rect x="469" y="445" width="16" height="10" fill="#FFD700"/>
  <circle cx="477" cy="440" r="8" fill="#FFD700" opacity="0.7"/>
  
  <!-- Luxury car in driveway -->
  <rect x="450" y="500" width="80" height="25" fill="#2F4F4F" rx="5"/>
  <rect x="455" y="495" width="70" height="15" fill="#4682B4" opacity="0.7"/>
  <circle cx="465" cy="530" r="8" fill="#1C1C1C"/>
  <circle cx="515" cy="530" r="8" fill="#1C1C1C"/>
  <circle cx="465" cy="530" r="4" fill="#C0C0C0"/>
  <circle cx="515" cy="530" r="4" fill="#C0C0C0"/>
  
  <!-- Golden hour lighting effects -->
  <rect x="360" y="175" width="90" height="5" fill="#FFD700" opacity="0.5"/>
  <rect x="270" y="195" width="45" height="3" fill="#FFD700" opacity="0.3"/>
  <rect x="485" y="195" width="45" height="3" fill="#FFD700" opacity="0.3"/>
  
  <!-- Window reflections -->
  <rect x="275" y="205" width="10" height="15" fill="white" opacity="0.4"/>
  <rect x="495" y="205" width="10" height="15" fill="white" opacity="0.4"/>
  <rect x="380" y="290" width="8" height="20" fill="white" opacity="0.4"/>
</svg>
